dataset
version=1
nRows=14
nColumns=39
inDegrees=no
endheader
time	sternoclavicular_r2	sternoclavicular_r3	unrotscap_r3	unrotscap_r2	acromioclavicular_r2	acromioclavicular_r3	acromioclavicular_r1	unrothum_r1	unrothum_r3	unrothum_r2	elv_angle	shoulder_elv	shoulder1_r2	shoulder_rot	elbow_flexion	pro_sup	deviation	flexion	cmc_abduction	cmc_flexion	mp_flexion	ip_flexion	mcp2_flexion	mcp2_abduction	pm2_flexion	md2_flexion	mcp3_flexion	mcp3_abduction	pm3_flexion	md3_flexion	mcp4_flexion	mcp4_abduction	pm4_flexion	md4_flexion	mcp5_flexion	mcp5_abduction	pm5_flexion	md5_flexion
5.205000	-0.052403	-0.400836	0.259836	0.135875	0.065532	0.358070	0.024825	-0.005518	-0.021028	0.081793	0.044517	0.027437	0.146525	0.146525	2.336591	4.440313	0.000000	0.000000	0.000000	0.000000	0.000000	0.000000	0.000000	0.000000	0.000000	0.000000	0.000000	0.000000	0.000000	0.000000	0.000000	0.000000	0.000000	0.000000	0.000000	0.000000	0.000000	0.000000
5.210000	-0.052399	-0.400874	0.259860	0.135837	0.065510	0.357985	0.024742	-0.005537	-0.021154	0.081790	0.044473	0.027437	0.146525	0.146525	2.336286	4.440227	0.000000	0.000000	0.000000	0.000000	0.000000	0.000000	0.000000	0.000000	0.000000	0.000000	0.000000	0.000000	0.000000	0.000000	0.000000	0.000000	0.000000	0.000000	0.000000	0.000000	0.000000	0.000000
5.215000	-0.052394	-0.400915	0.259888	0.135796	0.065486	0.357901	0.024655	-0.005553	-0.021284	0.081785	0.044426	0.027437	0.146525	0.146525	2.335975	4.440141	0.000000	0.000000	0.000000	0.000000	0.000000	0.000000	0.000000	0.000000	0.000000	0.000000	0.000000	0.000000	0.000000	0.000000	0.000000	0.000000	0.000000	0.000000	0.000000	0.000000	0.000000	0.000000
5.220000	-0.052388	-0.400960	0.259920	0.135753	0.065460	0.357818	0.024564	-0.005567	-0.021418	0.081779	0.044377	0.027437	0.146525	0.146525	2.335659	4.440056	0.000000	0.000000	0.000000	0.000000	0.000000	0.000000	0.000000	0.000000	0.000000	0.000000	0.000000	0.000000	0.000000	0.000000	0.000000	0.000000	0.000000	0.000000	0.000000	0.000000	0.000000	0.000000
5.225000	-0.052381	-0.401009	0.259956	0.135708	0.065430	0.357736	0.024469	-0.005579	-0.021554	0.081771	0.044326	0.027437	0.146525	0.146525	2.335339	4.439971	0.000000	0.000000	0.000000	0.000000	0.000000	0.000000	0.000000	0.000000	0.000000	0.000000	0.000000	0.000000	0.000000	0.000000	0.000000	0.000000	0.000000	0.000000	0.000000	0.000000	0.000000	0.000000
5.230000	-0.052373	-0.401062	0.259995	0.135660	0.065399	0.357656	0.024369	-0.005588	-0.021694	0.081761	0.044272	0.027437	0.146525	0.146525	2.335014	4.439887	0.000000	0.000000	0.000000	0.000000	0.000000	0.000000	0.000000	0.000000	0.000000	0.000000	0.000000	0.000000	0.000000	0.000000	0.000000	0.000000	0.000000	0.000000	0.000000	0.000000	0.000000	0.000000
5.235000	-0.052364	-0.401118	0.260038	0.135610	0.065364	0.357576	0.024266	-0.005595	-0.021837	0.081749	0.044216	0.027437	0.146525	0.146525	2.334684	4.439803	0.000000	0.000000	0.000000	0.000000	0.000000	0.000000	0.000000	0.000000	0.000000	0.000000	0.000000	0.000000	0.000000	0.000000	0.000000	0.000000	0.000000	0.000000	0.000000	0.000000	0.000000	0.000000
5.240000	-0.052353	-0.401177	0.260084	0.135558	0.065327	0.357498	0.024159	-0.005599	-0.021984	0.081734	0.044157	0.027437	0.146525	0.146525	2.334350	4.439719	0.000000	0.000000	0.000000	0.000000	0.000000	0.000000	0.000000	0.000000	0.000000	0.000000	0.000000	0.000000	0.000000	0.000000	0.000000	0.000000	0.000000	0.000000	0.000000	0.000000	0.000000	0.000000
5.245000	-0.052342	-0.401240	0.260134	0.135503	0.065287	0.357420	0.024048	-0.005601	-0.022134	0.081717	0.044095	0.027437	0.146525	0.146525	2.334012	4.439636	0.000000	0.000000	0.000000	0.000000	0.000000	0.000000	0.000000	0.000000	0.000000	0.000000	0.000000	0.000000	0.000000	0.000000	0.000000	0.000000	0.000000	0.000000	0.000000	0.000000	0.000000	0.000000
5.250000	-0.052329	-0.401307	0.260187	0.135445	0.065244	0.357344	0.023933	-0.005601	-0.022287	0.081698	0.044030	0.027437	0.146525	0.146525	2.333670	4.439554	0.000000	0.000000	0.000000	0.000000	0.000000	0.000000	0.000000	0.000000	0.000000	0.000000	0.000000	0.000000	0.000000	0.000000	0.000000	0.000000	0.000000	0.000000	0.000000	0.000000	0.000000	0.000000
5.255000	-0.052315	-0.401377	0.260243	0.135384	0.065198	0.357269	0.023814	-0.005599	-0.022443	0.081676	0.043962	0.027437	0.146525	0.146525	2.333325	4.439472	0.000000	0.000000	0.000000	0.000000	0.000000	0.000000	0.000000	0.000000	0.000000	0.000000	0.000000	0.000000	0.000000	0.000000	0.000000	0.000000	0.000000	0.000000	0.000000	0.000000	0.000000	0.000000
5.260000	-0.052300	-0.401450	0.260303	0.135320	0.065148	0.357195	0.023692	-0.005594	-0.022603	0.081650	0.043891	0.027437	0.146525	0.146525	2.332977	4.439390	0.000000	0.000000	0.000000	0.000000	0.000000	0.000000	0.000000	0.000000	0.000000	0.000000	0.000000	0.000000	0.000000	0.000000	0.000000	0.000000	0.000000	0.000000	0.000000	0.000000	0.000000	0.000000
5.265000	-0.052284	-0.401526	0.260365	0.135253	0.065095	0.357121	0.023567	-0.005587	-0.022765	0.081622	0.043816	0.027437	0.146525	0.146525	2.332625	4.439309	0.000000	0.000000	0.000000	0.000000	0.000000	0.000000	0.000000	0.000000	0.000000	0.000000	0.000000	0.000000	0.000000	0.000000	0.000000	0.000000	0.000000	0.000000	0.000000	0.000000	0.000000	0.000000
5.270000	-0.052266	-0.401605	0.260430	0.135183	0.065038	0.357050	0.023438	-0.005577	-0.022932	0.081590	0.043738	0.027437	0.146525	0.146525	2.332270	4.439228	0.000000	0.000000	0.000000	0.000000	0.000000	0.000000	0.000000	0.000000	0.000000	0.000000	0.000000	0.000000	0.000000	0.000000	0.000000	0.000000	0.000000	0.000000	0.000000	0.000000	0.000000	0.000000
